<?xml version="1.0" encoding="UTF-8" standalone="no"?>
<svg
   xmlns:dc="http://purl.org/dc/elements/1.1/"
   xmlns:cc="http://creativecommons.org/ns#"
   xmlns:rdf="http://www.w3.org/1999/02/22-rdf-syntax-ns#"
   xmlns:svg="http://www.w3.org/2000/svg"
   xmlns="http://www.w3.org/2000/svg"
   xmlns:sodipodi="http://sodipodi.sourceforge.net/DTD/sodipodi-0.dtd"
   xmlns:inkscape="http://www.inkscape.org/namespaces/inkscape"
   version="1.1"
   id="svg845"
   width="300"
   height="300"
   viewBox="0 0 300 300"
   sodipodi:docname="koi.svg"
   inkscape:version="1.0.1 (3bc2e813f5, 2020-09-07)">
  <metadata
     id="metadata851">
    <rdf:RDF>
      <cc:Work
         rdf:about="">
        <dc:format>image/svg+xml</dc:format>
        <dc:type
           rdf:resource="http://purl.org/dc/dcmitype/StillImage" />
        <dc:title></dc:title>
      </cc:Work>
    </rdf:RDF>
  </metadata>
  <defs
     id="defs849" />
  <sodipodi:namedview
     pagecolor="#ffffff"
     bordercolor="#666666"
     borderopacity="1"
     objecttolerance="10"
     gridtolerance="10"
     guidetolerance="10"
     inkscape:pageopacity="0"
     inkscape:pageshadow="2"
     inkscape:window-width="1920"
     inkscape:window-height="1017"
     id="namedview847"
     showgrid="false"
     inkscape:zoom="1.7512678"
     inkscape:cx="62.443485"
     inkscape:cy="150.88659"
     inkscape:window-x="-8"
     inkscape:window-y="-8"
     inkscape:window-maximized="1"
     inkscape:current-layer="g853" />
  <g
     inkscape:groupmode="layer"
     inkscape:label="Image"
     id="g853">
    <path
       style="opacity:0.999;fill:#000000;stroke-width:1.33333"
       d="m 203.72408,293.14445 c -10.23333,-1.49892 -24.85906,-6.69634 -34.12115,-12.12534 -9.61124,-5.63366 -26.60702,-22.49766 -31.56827,-31.32351 -3.49163,-6.21144 -4.39423,-6.92081 -10.5683,-8.30583 -3.71285,-0.83289 -9.9466,-2.99696 -13.85278,-4.80902 l -7.10215,-3.29467 -6.552587,5.65265 c -12.90541,11.13298 -31.46711,20.52048 -43.43379,21.96648 l -5.52401,0.6675 -2.14266,-9.42054 c -2.92414,-12.85648 -2.753,-30.74778 0.41252,-43.12482 3.28799,-12.85592 7.90784,-22.63236 11.08789,-23.46396 1.6969,-0.44375 2.21948,-1.35359 1.6162,-2.8139 -2.66068,-6.44038 -4.76452,-16.79321 -5.48609,-26.99649 l -0.81362,-11.50507 -6.95867,-0.81785 c -8.59632,-1.01032 -16.66755,-4.26107 -16.66755,-6.71297 0,-2.5781 15.64944,-16.79239 18.48783,-16.79239 1.28471,0 3.50051,0.88092 4.924,1.9576 3.23534,2.44708 4.58817,2.53707 4.58817,0.3052 0,-2.09625 9.48115,-21.52185 12.8976,-26.425454 1.33966,-1.922795 5.28574,-6.619197 8.76907,-10.436451 3.48333,-3.817253 6.33333,-8.044314 6.33333,-9.39347 0,-1.349155 -1.12164,-5.069704 -2.49254,-8.267888 -7.69387,-17.949055 -9.38649,-56.948962 -2.6568,-61.2155708 4.56416,-2.8936715 30.466057,3.219956 44.184777,10.4289398 11.42323,6.00274 26.81924,20.235093 34.28451,31.693225 3.96425,6.084555 6.73929,8.954394 9.18082,9.49442 6.65392,1.471736 8.85886,2.175842 15.1659,4.842946 3.48333,1.473022 6.33333,3.267722 6.33333,3.988222 0,0.7205 -1.52179,3.118542 -3.38175,5.328982 -1.85996,2.210438 -4.28901,5.897053 -5.39788,8.192474 -1.66652,3.449775 -1.67806,3.711071 -0.0665,1.506827 16.6246,-22.740001 31.35534,-34.415555 51.32002,-40.676111 12.09922,-3.794094 14.3669,-3.556974 16.0294,1.676111 2.93687,9.244464 4.32686,26.179076 2.95707,36.026773 -2.51899,18.109053 -9.52839,35.639895 -14.25004,35.639895 -1.53976,0 -1.88312,0.67174 -1.19267,2.33333 3.02658,7.28348 4.81672,15.64017 5.54443,25.8822 0.81047,11.40703 0.78136,11.55627 -2.37075,12.15176 -1.75521,0.33159 -0.37082,0.6846 3.07642,0.78447 8.24093,0.23873 18.82424,2.55693 21.88253,4.79321 2.22545,1.62729 2.26836,2.11685 0.48013,5.47868 -2.5058,4.71077 -14.06183,13.90968 -17.47392,13.90968 -1.43223,0 -5.71597,-2.85 -9.51943,-6.33333 -6.84593,-6.26975 -6.87738,-6.28215 -3.13286,-1.23436 l 3.7825,5.09897 -2.2931,6.23436 c -3.43988,9.35213 -11.57408,22.61713 -19.20072,31.31195 -3.73608,4.25934 -6.79287,8.05736 -6.79287,8.44005 0,0.38269 1.78312,5.74777 3.96249,11.9224 5.37062,15.21607 7.23123,30.97248 5.31236,44.98708 -2.08926,15.25917 -1.86638,15.09717 -17.59984,12.79261 z m 3.54848,-14.99374 c 3.61863,-10.83471 4.82988,-23.25807 3.27198,-33.55932 -0.77634,-5.13334 -1.98612,-9.93334 -2.68842,-10.66667 -0.8153,-0.85135 -0.89072,0.83561 -0.20864,4.66667 1.98546,11.15164 0.92986,30.65218 -2.12242,39.20873 -3.12922,8.77216 -3.35362,9.89776 -1.60646,8.05793 0.66158,-0.69666 2.17086,-4.16497 3.35396,-7.70734 z m -12.50514,-11.86587 c 6.10318,-11.43916 11.52162,-33.02679 8.28965,-33.02679 -0.71213,0 -1.66423,3.53466 -2.11577,7.85478 -1.05612,10.10449 -4.96044,20.44106 -11.60273,30.71797 -2.90923,4.50115 -5.26794,8.61365 -5.24156,9.13891 0.0939,1.86873 6.65926,-7.16678 10.67041,-14.68487 z m -20.30029,-2.949 c 7.89322,-5.81067 16.49184,-15.89407 20.76008,-24.34491 3.79775,-7.51926 2.25321,-7.99832 -1.841,-0.571 -5.68252,10.30872 -12.6595,18.34478 -21.7145,25.0107 -4.35381,3.20508 -7.31601,5.82742 -6.58268,5.82742 0.73334,0 4.95348,-2.665 9.3781,-5.92221 z M 67.958603,255.77175 c 10.57045,-3.62316 20.68787,-10.04444 30.99046,-19.6689 7.933937,-7.41172 18.313017,-20.72242 20.130057,-25.81594 0.33267,-0.93254 1.06065,-1.27188 1.61772,-0.7541 0.55707,0.51779 -2.09173,5.60322 -5.88622,11.30095 -7.99499,12.00509 -7.98293,12.03776 6.03765,16.36828 24.89247,7.68851 43.78012,6.26016 58.20079,-4.40131 2.01667,-1.49096 3.66667,-3.198 3.66667,-3.79342 0,-0.59543 -3.26459,-1.08259 -7.25464,-1.08259 -3.99006,0 -7.57563,-0.51936 -7.96794,-1.15412 -0.3923,-0.63477 3.59758,-1.08477 8.8664,-1 9.32494,0.15003 9.65494,0.0425 12.40863,-4.04108 8.11575,-12.03531 9.39614,-30.8958 3.03244,-44.66875 -7.40275,-16.02181 -20.91068,-24.68468 -41.61931,-26.69117 -21.47828,-2.08107 -36.98214,-12.83073 -43.52182,-30.17604 -4.24047,-11.2471 -3.32638,-27.448578 2.12153,-37.602171 l 3.93471,-7.333334 10.33333,-0.389418 c 12.68861,-0.47818 13.77597,-2.923187 1.33333,-2.998103 l -9,-0.05419 4.39093,-3.757664 c 2.41501,-2.066713 7.81501,-5.463308 12,-7.547988 6.6509,-3.313028 9.14875,-3.798445 19.83598,-3.854816 l 12.22691,-0.06449 -2.87256,-5.333333 C 155.75989,41.596471 137.87573,25.13133 125.76468,18.851943 113.91712,12.709168 97.661913,7.9247212 88.639323,7.9247212 h -5.64984 l -1.47021,8.4425518 c -0.80861,4.643402 -1.466,11.993402 -1.46087,16.333333 0.0111,9.328332 4.19258,27.779249 7.97659,35.196523 1.47441,2.89008 2.68074,6.44368 2.68074,7.896886 0,1.453208 -3.07951,6.127111 -6.84336,10.386452 -9.05542,10.247531 -14.93905,19.507363 -19.27199,30.330863 l -3.55572,8.88202 2.83554,3.01828 c 5.99461,6.38098 2.47256,6.11561 -4.59794,-0.34644 -5.95595,-5.4434 -7.90609,-6.54084 -9.81124,-5.52123 -4.79412,2.56573 -15.1881,12.93511 -14.3405,14.30656 1.34668,2.17896 11.88509,4.40753 20.8423,4.40753 4.49527,0 8.07624,0.5912 8.07624,1.33334 0,0.73333 -1.56089,1.33333 -3.46865,1.33333 h -3.46866 l 0.85821,9.66667 c 0.88886,10.01201 4.1409,25.86392 5.88494,28.68582 0.77163,1.24854 3.24898,1.13427 10.92932,-0.5041 10.90796,-2.32691 34.077787,-1.821 38.285837,0.83594 1.76925,1.1171 0.76149,1.25778 -4.29085,0.599 -17.999877,-2.34701 -47.039727,1.283 -50.248847,6.28118 -2.92294,4.55245 -6.96653,17.5351 -8.81825,28.31252 -1.64079,9.54981 -1.76261,14.12181 -0.6217,23.33333 0.78042,6.30097 2.05579,13.12015 2.83415,15.15372 1.58572,4.14288 2.52744,4.11251 16.03404,-0.51705 z m -4.6393,-13.89704 c 15.85568,-4.34972 31.47654,-14.71428 41.119807,-27.28332 1.96921,-2.56667 3.58703,-4.03644 3.59516,-3.26616 0.0297,2.80978 -14.153137,17.19708 -21.868397,22.18369 -7.54631,4.87741 -22.56704,10.55157 -27.25725,10.29657 -1.20609,-0.0656 0.77872,-0.93442 4.41068,-1.93078 z m -3.9369,-18.14588 c 14.78134,-2.72934 25.67004,-7.32156 35.93012,-15.15326 3.48255,-2.65829 6.618857,-4.5463 6.969567,-4.1956 1.11425,1.11424 -13.303587,11.24464 -20.221447,14.20818 -7.75376,3.32164 -21.21948,6.68712 -26.01158,6.50108 -1.83333,-0.0712 -0.33333,-0.68336 3.33334,-1.3604 z m 8.39163,-17.88307 c 6.08207,-1.07079 14.73306,-3.44008 19.22444,-5.26508 9.73025,-3.95376 11.72961,-3.65181 2.71338,0.40977 -7.89304,3.55563 -14.72611,5.2265 -24.99612,6.11224 -6.8045,0.58687 -6.34748,0.39903 3.0583,-1.25693 z m 74.214427,-1.19377 c -4.39,-4.38999 -4.39129,-11.13094 -0.003,-15.86591 6.98392,-7.53621 19.3966,-2.54137 19.3966,7.80531 0,3.30565 -1.01317,5.80105 -3.27273,8.0606 -2.25922,2.25956 -4.75462,3.27273 -8.06027,3.27273 -3.30565,0 -5.80105,-1.01317 -8.0606,-3.27273 z M 86.817173,170.36711 c -0.15059,-5.28142 1.13351,-7.65636 5.30643,-9.81427 2.63718,-1.36373 4.66828,-1.5722 6.83843,-0.70187 l 3.087027,1.23806 -3.411817,0.0845 c -4.70179,0.11653 -8.17588,2.96167 -10.09647,8.26875 -1.54949,4.28162 -1.62671,4.32305 -1.7236,0.92482 z m 24.013157,-0.19671 c -0.23339,-7.64568 5.90652,-12.82311 12.20545,-10.29215 2.78909,1.1207 2.70626,1.21706 -1.1134,1.29528 -4.63617,0.0949 -8.13895,3.27919 -9.83571,8.94126 l -1.14174,3.80993 z m -44.112527,-1.30628 c -0.003,-4.91497 5.4072,-10.29225 10.27066,-10.20869 l 3.72727,0.064 -4.66667,2.26929 c -2.71654,1.32099 -5.64086,4.21943 -6.99792,6.93596 -2.32873,4.6616 -2.33127,4.66261 -2.33334,0.9394 z m 40.394247,-16.14028 c 0.3028,-5.82525 5.30761,-10.85203 9.76392,-9.80675 2.18021,0.5114 2.06545,0.7707 -0.88171,1.9922 -4.16599,1.7267 -6.43677,4.36446 -7.97472,9.26352 -1.08778,3.46504 -1.15716,3.35426 -0.90749,-1.44897 z M 90.350023,150.2282 c -1.33965,-3.49107 1.49584,-9.78285 5.16148,-11.45303 5.722907,-2.60754 8.179547,-1.56222 2.89088,1.23008 -3.31246,1.7489 -5.249,3.8499 -5.7833,6.2744 -0.4418,2.00479 -0.94068,4.21474 -1.10862,4.91099 -0.16794,0.69625 -0.69014,0.26316 -1.16044,-0.96244 z m -20.6702,-2.83828 c 0.51497,-5.39473 6.21695,-9.49504 11.25317,-8.0922 3.13845,0.87421 3.32854,1.13973 1.11607,1.55892 -1.46666,0.27788 -3.93765,0.77348 -5.49109,1.10133 -1.55343,0.32784 -3.81959,2.55448 -5.0359,4.94808 l -2.21149,4.352 z m -22.27439,-10.30944 c -2.92067,-0.68367 -5.89067,-1.8234 -6.6,-2.53273 -1.65358,-1.65358 -1.66801,-1.65581 8.57697,1.32882 8.89538,2.59147 7.52245,3.42754 -1.97697,1.20391 z m 5.30236,-5.91877 c -2.92897,-1.77283 -4.81797,-3.2264 -4.19778,-3.23016 0.89125,-0.005 5.85927,2.45197 10.09461,4.99317 0.30555,0.18333 0.30198,0.58691 -0.008,0.89683 -0.30992,0.30992 -2.95992,-0.88701 -5.88889,-2.65984 z m 35.95588,-0.57032 c 0.55271,-1.83334 1.80429,-4.17568 2.78131,-5.2052 1.92282,-2.02617 9.584897,-2.34731 11.452217,-0.48 0.6437,0.6437 -0.80665,0.92108 -3.296317,0.63043 -3.72353,-0.4347 -5.05469,0.20449 -8.19395,3.93454 -3.39227,4.03067 -3.65276,4.13704 -2.74326,1.12023 z m -19.26086,-4.15352 c 0.0289,-2.61098 1.52427,-4.54095 4.89193,-6.31354 3.76338,-1.98089 6.0268,-1.93598 8.91636,0.17692 2.0214,1.47808 1.63017,1.64233 -2.886,1.21165 -4.41345,-0.42089 -5.66818,0.066 -8.08354,3.13661 -1.57254,1.99916 -2.84998,2.80392 -2.83875,1.78836 z m 12.23188,-15.9367 c 0.32038,-0.96114 2.08871,-2.87206 3.92961,-4.2465 3.62718,-2.70808 9.75075,-2.16594 10.95405,0.96981 0.52482,1.36766 -0.13911,1.42329 -3.19963,0.26807 -3.30942,-1.24917 -4.46304,-1.01324 -8.0642,1.64922 -2.31129,1.70881 -3.94021,2.32053 -3.61983,1.3594 z M 113.80651,64.516139 c 4.26659,-4.021241 11.19796,-9.048114 15.40304,-11.17083 8.3174,-4.198612 22.59942,-8.771786 23.76238,-7.608831 0.39882,0.398821 -0.99567,1.095171 -3.09887,1.547443 -13.38535,2.878385 -26.89328,10.144657 -35.76126,19.23691 -2.89883,2.97214 -5.89883,5.382014 -6.66667,5.355274 -0.76784,-0.02673 2.09478,-3.338724 6.36138,-7.359966 z m -11.09078,2.697591 c 0,-2.7592 7.70124,-14.872768 13.46426,-21.178425 7.03318,-7.695422 18.1442,-16.2799 19.42002,-15.004087 0.38328,0.383281 -1.19778,1.676631 -3.51345,2.874112 -6.64091,3.434149 -19.08603,16.931316 -23.84586,25.86168 -3.91347,7.342417 -5.52497,9.514449 -5.52497,7.44672 z M 90.662993,59.030462 c -2.11353,-10.146252 -0.87084,-26.744465 2.8086,-37.513691 3.71451,-10.871854 4.60915,-10.067609 1.15313,1.036611 -3.56596,11.457459 -4.61859,25.551088 -2.62481,35.143747 0.8885,4.274824 1.31545,8.072406 0.94878,8.439073 -0.36666,0.366667 -1.39523,-2.830916 -2.2857,-7.10574 z m 6.83974,3.507725 c -0.27238,-10.683777 9.293337,-34.772674 16.216717,-40.83776 3.21186,-2.813686 2.38934,-1.103092 -3.22056,6.697866 -4.754,6.610754 -8.95456,17.741496 -11.142797,29.526429 -1.23985,6.677267 -1.76727,7.99016 -1.85336,4.613465 z M 159.09113,251.81359 c 4.5602,-1.52779 11.29126,-4.48638 14.95793,-6.57464 7.61419,-4.33647 20.04957,-15.72634 18.64585,-17.07818 -0.51554,-0.49649 -1.87258,0.48891 -3.01566,2.1898 -4.88411,7.26755 -29.76831,21.57415 -37.525,21.57415 -1.43796,0 -2.9853,0.6 -3.43852,1.33333 -1.22098,1.97558 1.15409,1.64492 10.3754,-1.44446 z m 57.18629,-58.09552 c 1.34108,-1.21366 2.43832,-3.14716 2.43832,-4.29667 0,-1.52381 -0.56231,-1.28723 -2.0756,0.87331 -2.31704,3.30804 -8.2037,3.95769 -13.01206,1.436 -2.89126,-1.5163 -2.89396,-1.50664 -0.37236,1.33333 3.06635,3.45349 9.56751,3.78003 13.0217,0.65403 z m 10.92517,-13.89012 c 1.96764,-1.54775 3.47345,-4.04064 3.42291,-5.66667 l -0.0903,-2.90323 -1.37897,2.8479 c -1.73388,3.58084 -7.19632,6.14246 -10.9271,5.12429 -2.78417,-0.75984 -2.78985,-0.73143 -0.25861,1.29211 3.41924,2.73341 5.02811,2.6124 9.23201,-0.6944 z m -17.91696,-6.08304 c 1.51989,-1.93223 2.74443,-4.18223 2.7212,-5 -0.0232,-0.81778 -1.27328,0.16314 -2.77788,2.17981 -2.21368,2.96708 -3.7956,3.67056 -8.29109,3.68708 -4.07809,0.0149 -5.0236,0.36413 -3.55546,1.31292 3.77815,2.44163 9.0236,1.48104 11.90323,-2.17981 z m 43.41833,-1.83924 c -1.18226,-1.91295 -11.32156,-6.9318 -11.32156,-5.60407 0,0.60376 2.55,2.37873 5.66667,3.94439 6.74057,3.38612 6.71775,3.37941 5.65489,1.65968 z m 8.1526,-6.41976 c -0.94178,-1.52384 -14.69328,-4.71451 -16.96316,-3.93584 -1.01438,0.34797 2.05567,1.55448 6.82234,2.6811 10.90806,2.57819 10.96296,2.58498 10.14082,1.25474 z m -54.03826,-5.45863 c 4.02412,-4.02411 4.80462,-7.30227 2.5641,-10.76923 -1.0044,-1.55418 -1.29705,-1.16917 -1.31292,1.72727 -0.0263,4.80196 -5.43002,10.24417 -10.29314,10.36645 -3.28403,0.0825 -3.41016,0.22998 -1.06061,1.23962 4.43921,1.90758 6.03621,1.50225 10.10257,-2.56411 z m 21.03634,-0.54428 c 2.86088,-2.29541 4.37215,-7.48945 2.90879,-9.99723 -1.08531,-1.8599 -1.30663,-1.65644 -1.34048,1.2323 -0.0507,4.32832 -3.5378,7.57277 -9.39896,8.745 -3.79733,0.75946 -4.10196,1.06358 -1.91251,1.9093 2.89068,1.11659 6.98663,0.32231 9.74316,-1.88937 z m -36.9385,-4.46901 c 2.81528,-2.46758 3.56203,-5.5593 2.35637,-9.75594 l -0.95764,-3.33333 -0.13293,3.72727 c -0.17169,4.81518 -5.62324,10.2462 -10.40564,10.36645 -3.27551,0.0824 -3.40405,0.23104 -1.0606,1.22679 3.14037,1.33437 7.12739,0.46225 10.20041,-2.23124 z m 40.13293,-16.62718 c 1.28333,-1.51662 2.28439,-4.64105 2.22457,-6.94314 l -0.10877,-4.18562 -2.00505,4.60291 c -2.42471,5.56628 -5.33263,7.958 -9.77742,8.04177 -2.6702,0.0503 -2.93545,0.32666 -1.33333,1.389 2.76721,1.83492 8.20425,0.3991 11,-2.90492 z m -44.33334,0.20458 c 1.75005,-1.75006 2.64654,-4.38531 2.60814,-7.66667 l -0.0585,-5 -1.84175,5.16694 c -2.26746,6.36129 -2.8748,6.96169 -8.70786,8.60843 l -4.6667,1.31746 5,0.12026 c 3.34225,0.0804 5.88413,-0.76388 7.66667,-2.54641 z m 23.74859,-0.052 c 1.90128,-1.77131 2.88019,-4.21044 2.80932,-7 l -0.10877,-4.28134 -1.79628,4.09128 c -2.15321,4.90422 -4.55043,7.04728 -9.56761,8.5533 -3.71106,1.11396 -3.7002,1.12746 0.99668,1.24082 3.05809,0.0737 5.78741,-0.85322 7.66666,-2.60401 z m 2.60863,-18.23409 c -2.00353,-0.30423 -5.60353,-0.31036 -8,-0.0136 -2.39647,0.29675 -0.75721,0.54566 3.64279,0.55315 4.4,0.007 6.36074,-0.23531 4.35721,-0.53954 z m -16.66518,-1.25522 c -0.90271,-0.36523 -2.70271,-0.38746 -4,-0.0494 -1.2973,0.33806 -0.55871,0.63689 1.64129,0.66406 2.2,0.0272 3.26142,-0.24942 2.35871,-0.61465 z m 32.97463,-0.45869 c 2.61199,-0.83651 2.75627,-1.06215 0.66667,-1.04268 -1.46667,0.0137 -4.46667,0.48287 -6.66667,1.04268 -3.59296,0.91425 -3.6608,1.02035 -0.66666,1.04267 1.83333,0.0137 4.83333,-0.45554 6.66666,-1.04267 z m -40.36111,-0.80556 c -0.44307,-0.44305 -1.59307,-0.49042 -2.55556,-0.10527 -1.06364,0.42564 -0.74771,0.74158 0.80556,0.80556 1.40554,0.0579 2.19305,-0.25724 1.75,-0.70029 z m -31.74606,-5.52778 c 1.57022,-1.28333 3.21067,-4.5555 3.64547,-7.27148 0.68809,-4.29827 0.244,-5.484672 -3.42731,-9.155976 -3.55116,-3.551153 -4.89433,-4.088033 -8.49774,-3.396615 -5.11239,0.980955 -10.27992,6.407979 -10.27992,10.796121 0,1.73618 1.55333,5.00272 3.45185,7.25899 4.02933,4.78859 10.48775,5.54481 15.10765,1.76896 z m 61.44051,-14.515872 c 4.76666,-1.69507 10.76666,-3.168424 13.33333,-3.27412 2.56667,-0.105693 6.46667,-0.699404 8.66667,-1.319349 2.7191,-0.766226 1.01125,-0.9169 -5.33334,-0.47053 -10.04322,0.706587 -24.04081,4.719009 -28.13848,8.065921 -2.463,2.01174 -2.45942,2.03939 0.13848,1.0725 1.46667,-0.54587 6.56667,-2.379352 11.33334,-4.074422 z m 1.24516,-15.005724 c 4.59134,-2.171365 12.48946,-4.646503 17.55137,-5.500304 5.06191,-0.8538 9.20347,-1.880763 9.20347,-2.282139 0,-1.593605 -15.1704,1.183232 -23.41223,4.285446 -8.84885,3.3307 -24.58777,13.354001 -24.58777,15.658678 0,0.689536 2.90188,-0.876472 6.44862,-3.48002 3.54674,-2.603548 10.20518,-6.510296 14.79654,-8.681661 z m -23.81635,3.009828 c 5.35216,-10.000569 26.26683,-23.951645 41.00812,-27.354341 3.79301,-0.875535 6.8964,-2.03266 6.8964,-2.571391 0,-2.67738 -21.27611,4.801747 -30.25392,10.635072 -10.26216,6.667824 -24.89849,22.802433 -20.68497,22.802433 0.63521,0 2.00068,-1.580298 3.03437,-3.511773 z"
       id="path857" />
  </g>
</svg>
