<?xml version="1.0" standalone="no"?>
<!DOCTYPE svg PUBLIC "-//W3C//DTD SVG 20010904//EN"
 "http://www.w3.org/TR/2001/REC-SVG-20010904/DTD/svg10.dtd">
<svg version="1.0" xmlns="http://www.w3.org/2000/svg"
 width="700.000000pt" height="700.000000pt" viewBox="0 0 700.000000 700.000000"
 preserveAspectRatio="xMidYMid meet">
<metadata>
Created by potrace 1.11, written by Peter Selinger 2001-2013
</metadata>
<g transform="translate(0.000000,700.000000) scale(0.100000,-0.100000)"
fill="#000000" stroke="none">
<path d="M3435 6782 c-436 -415 -1027 -722 -1725 -898 -58 -14 -112 -28 -120
-29 -22 -5 -232 -46 -255 -51 -66 -11 -312 -44 -375 -49 -41 -4 -91 -8 -110
-11 -19 -2 -116 -7 -215 -10 -99 -3 -185 -7 -190 -9 -12 -3 -11 -32 0 -285 9
-194 18 -315 30 -400 9 -67 15 -109 20 -155 3 -27 8 -63 11 -80 3 -16 7 -39 9
-50 4 -26 24 -142 31 -180 11 -64 55 -262 70 -320 9 -33 17 -67 19 -76 20
-104 140 -480 217 -684 125 -332 317 -734 489 -1025 50 -85 96 -164 103 -175
65 -116 301 -452 463 -660 23 -29 185 -225 195 -237 7 -7 47 -52 88 -98 66
-76 160 -176 262 -280 284 -289 651 -594 985 -818 l62 -42 58 37 c65 42 73 48
263 190 286 212 536 434 821 729 159 166 373 414 494 574 27 36 52 67 55 70
15 14 168 233 262 375 458 696 784 1458 962 2250 36 161 89 463 100 565 4 30
8 69 10 85 24 181 49 664 36 685 -3 4 -84 10 -180 14 -201 7 -330 16 -430 31
-14 2 -52 6 -84 10 -33 3 -123 18 -200 31 -78 14 -150 27 -161 29 -124 18
-497 124 -690 195 -214 78 -506 214 -643 298 -263 162 -433 289 -608 455 -33
31 -63 57 -65 57 -2 0 -31 -26 -64 -58z m148 -735 c71 -53 203 -141 242 -163
11 -6 61 -34 110 -63 126 -73 368 -190 510 -246 66 -26 134 -53 150 -60 261
-109 816 -243 1215 -294 47 -6 99 -13 115 -15 17 -2 36 -5 43 -5 14 -1 13 -7
-4 -166 -2 -22 -6 -51 -9 -65 -3 -14 -7 -43 -10 -65 -7 -67 -16 -114 -41 -245
-14 -69 -27 -136 -30 -150 -3 -14 -7 -33 -10 -42 -3 -10 -7 -30 -10 -45 -13
-73 -86 -328 -144 -503 -129 -388 -318 -808 -522 -1155 -36 -60 -71 -121 -79
-135 -30 -52 -258 -389 -314 -465 -62 -84 -243 -311 -281 -355 -13 -14 -32
-36 -44 -50 -146 -169 -261 -290 -432 -455 -85 -82 -121 -116 -232 -214 -39
-34 -174 -146 -257 -213 -50 -40 -49 -40 -109 9 -94 75 -171 139 -210 173 -14
12 -38 33 -55 47 -219 190 -500 478 -705 723 -139 166 -325 410 -396 520 -16
25 -33 50 -37 55 -27 33 -164 254 -245 395 -234 407 -411 819 -562 1304 -43
140 -125 492 -154 661 -10 60 -26 161 -31 200 -3 22 -7 54 -9 70 -14 103 -17
165 -10 166 5 0 16 2 24 3 8 2 43 6 77 10 74 8 138 16 173 22 223 37 415 75
513 100 9 2 27 6 39 9 11 2 87 23 167 46 529 149 973 356 1385 646 49 35 93
63 98 63 4 0 41 -24 81 -53z"/>
<path d="M2950 5400 c0 -4 15 -20 33 -35 194 -162 295 -308 323 -465 11 -64
21 -678 29 -1771 l5 -667 -43 10 c-23 5 -49 11 -59 13 -50 10 -134 74 -183
138 -97 127 -154 272 -310 782 -70 230 -107 341 -152 460 -178 470 -385 634
-661 524 -62 -24 -168 -90 -223 -138 -18 -17 -37 -31 -41 -31 -5 0 -8 -4 -8
-10 0 -6 48 -7 128 -3 117 5 133 3 176 -16 121 -53 205 -175 289 -417 28 -79
98 -333 112 -404 2 -8 26 -107 55 -220 115 -453 219 -692 362 -830 71 -69 112
-92 253 -140 167 -58 228 -94 257 -155 38 -80 -13 -148 -243 -317 -76 -56
-136 -105 -133 -109 4 -6 1184 -9 1184 -3 0 2 -55 43 -122 91 -209 151 -294
244 -282 310 13 68 92 122 267 182 135 46 185 73 248 134 44 41 139 167 139
182 0 4 10 24 22 44 13 20 23 38 23 41 1 3 11 28 24 55 46 101 112 322 185
612 93 374 117 460 166 589 69 185 156 305 252 352 39 19 57 21 181 17 157 -4
155 -6 57 70 -332 256 -586 178 -779 -237 -86 -185 -119 -278 -265 -758 -36
-118 -79 -253 -96 -300 -18 -47 -37 -98 -43 -115 -21 -59 -88 -181 -128 -235
-67 -89 -149 -142 -257 -163 l-33 -7 6 663 c10 1194 18 1712 30 1777 27 158
127 301 323 465 17 15 32 31 32 36 0 4 -243 8 -550 8 -302 0 -550 -4 -550 -9z"/>
</g>
</svg>
