<?xml version="1.0" standalone="no"?>
<!DOCTYPE svg PUBLIC "-//W3C//DTD SVG 20010904//EN"
 "http://www.w3.org/TR/2001/REC-SVG-20010904/DTD/svg10.dtd">
<svg version="1.0" xmlns="http://www.w3.org/2000/svg"
 width="700.000000pt" height="700.000000pt" viewBox="0 0 700.000000 700.000000"
 preserveAspectRatio="xMidYMid meet">
<metadata>
Created by potrace 1.11, written by Peter Selinger 2001-2013
</metadata>
<g transform="translate(0.000000,700.000000) scale(0.100000,-0.100000)"
fill="#000000" stroke="none">
<path d="M1970 6862 c-50 -8 -82 -53 -104 -154 -28 -121 -37 -367 -21 -541 4
-39 8 -90 10 -112 6 -79 27 -212 52 -330 22 -108 38 -160 119 -388 13 -38 24
-84 24 -101 0 -45 -53 -123 -195 -286 -153 -177 -197 -245 -315 -485 -99 -201
-140 -296 -140 -326 0 -9 -7 -20 -16 -23 -17 -7 -33 1 -97 44 -56 38 -106 46
-146 26 -92 -48 -375 -313 -387 -363 -19 -74 187 -152 471 -179 33 -3 63 -9
67 -12 7 -8 14 -74 23 -222 3 -52 8 -106 10 -120 2 -14 6 -52 10 -85 10 -102
55 -306 85 -396 17 -48 30 -94 30 -102 0 -9 -18 -26 -41 -37 -120 -62 -273
-478 -306 -835 -10 -105 -10 -390 0 -485 13 -118 16 -138 51 -296 l33 -149 49
1 c71 1 138 12 219 35 38 11 75 22 80 23 6 2 19 6 30 11 338 132 598 293 874
542 20 18 41 33 47 33 6 0 64 -24 130 -53 135 -61 202 -85 349 -126 160 -46
169 -52 250 -186 127 -211 456 -550 684 -704 186 -127 596 -283 831 -316 24
-4 47 -8 50 -10 11 -6 148 -19 205 -18 34 0 71 5 83 12 45 24 70 108 99 326
10 75 10 421 0 495 -7 52 -30 185 -41 239 -17 80 -53 200 -111 371 -36 107
-65 199 -65 206 0 6 48 69 108 139 259 309 413 560 522 857 l28 76 -69 94
c-38 51 -69 97 -69 103 0 5 19 -9 43 -31 135 -129 234 -204 288 -217 96 -24
449 284 449 391 0 50 -117 106 -290 138 -14 2 -35 6 -47 9 -28 6 -211 23 -266
24 -31 1 -28 21 2 21 30 0 42 25 43 92 1 62 -9 231 -16 279 -3 13 -7 51 -11
84 -10 91 -50 259 -84 357 -17 47 -31 93 -31 101 0 8 18 19 40 26 28 8 50 25
72 54 58 80 146 287 184 437 8 30 16 62 18 70 8 29 16 65 20 90 3 14 10 50 16
80 31 158 33 488 4 655 -3 17 -7 41 -8 55 -19 148 -58 272 -98 305 -28 23 -36
25 -87 20 -182 -19 -527 -155 -726 -286 -44 -29 -82 -55 -85 -58 -3 -4 -39
-33 -80 -66 -92 -73 -235 -213 -327 -320 -75 -89 -94 -113 -183 -229 -33 -43
-60 -74 -60 -69 0 18 89 164 147 240 63 82 83 115 83 133 0 16 -78 62 -167
100 -43 17 -87 36 -98 41 -30 12 -155 47 -195 54 -84 15 -145 69 -251 226 -32
47 -64 92 -71 100 -7 8 -26 32 -43 54 -47 63 -261 279 -360 361 -115 97 -289
213 -385 257 -303 142 -768 255 -940 229z m250 -62 c241 -39 561 -151 755
-263 223 -129 531 -397 690 -601 54 -70 160 -245 153 -251 -2 -2 -118 -5 -258
-8 -218 -5 -266 -9 -328 -26 -133 -39 -336 -154 -470 -267 -35 -30 -62 -54
-60 -55 2 -1 71 -3 153 -4 160 -4 221 -10 245 -25 27 -17 -35 -31 -195 -45
-22 -2 -91 -5 -153 -7 -86 -2 -116 -6 -126 -18 -20 -23 -103 -182 -126 -242
-25 -64 -57 -195 -66 -269 -11 -96 -6 -291 11 -369 51 -245 196 -473 395 -620
59 -43 259 -157 268 -151 1 1 37 -9 80 -23 91 -28 202 -52 287 -61 62 -6 78
-8 180 -26 569 -97 927 -523 910 -1084 -4 -136 -7 -163 -31 -259 -32 -124
-116 -299 -170 -354 -31 -30 -88 -40 -240 -41 -175 -2 -230 -9 -212 -26 9 -9
49 -15 143 -20 137 -8 189 -15 199 -25 27 -27 -161 -163 -304 -221 -144 -57
-293 -84 -470 -83 -216 0 -387 29 -665 111 -210 63 -267 97 -259 155 4 33 47
116 98 188 60 84 166 272 166 292 0 5 -8 8 -18 8 -10 0 -23 -13 -31 -32 -30
-69 -162 -258 -261 -372 -34 -39 -131 -146 -151 -165 -281 -278 -567 -452
-899 -550 -41 -13 -88 -27 -104 -32 -65 -21 -110 -10 -132 33 -15 28 -47 161
-59 243 -3 23 -7 52 -10 65 -28 144 -26 453 3 612 46 244 131 527 194 641 14
25 39 50 63 64 34 19 146 54 219 69 55 11 74 14 116 20 25 3 56 7 70 10 118
20 593 27 720 10 95 -12 103 -12 107 1 7 20 -92 43 -242 58 -59 6 -385 6 -455
1 -66 -6 -165 -18 -170 -21 -3 -2 -26 -6 -50 -10 -25 -3 -63 -10 -85 -15 -22
-5 -64 -10 -92 -10 -48 0 -54 2 -68 29 -8 17 -22 56 -31 88 -18 68 -70 318
-78 383 -3 25 -8 56 -10 70 -7 40 -15 118 -21 210 -4 47 -9 92 -11 102 -7 23
8 29 76 32 60 2 88 15 76 34 -8 13 -70 21 -216 28 -69 3 -136 7 -150 10 -14 2
-54 9 -90 15 -108 17 -210 57 -210 83 0 20 35 63 124 151 150 149 218 193 268
176 29 -10 105 -69 208 -160 60 -54 140 -98 140 -78 0 17 -62 98 -104 136 -14
14 -26 31 -26 38 0 21 105 275 155 374 89 178 153 270 403 578 45 57 94 125
108 153 24 48 25 51 10 102 -9 29 -32 88 -52 132 -36 79 -44 102 -82 224 -19
61 -49 185 -58 240 -2 14 -6 34 -9 46 -3 12 -7 36 -10 55 -2 19 -9 61 -14 94
-10 63 -8 351 4 420 3 22 15 99 26 170 11 72 22 135 24 141 4 14 187 11 285
-6z m3470 -1100 c0 -15 -26 -25 -175 -68 -77 -22 -184 -61 -238 -86 -287 -133
-574 -351 -678 -514 -52 -81 -78 -112 -96 -112 -71 0 131 243 365 439 60 50
247 171 265 171 3 0 34 13 69 29 77 36 199 85 253 101 153 47 235 61 235 40z
m60 -448 c0 -8 -98 -35 -175 -48 -269 -45 -506 -147 -800 -344 -102 -68 -135
-86 -135 -71 0 43 288 235 487 324 103 47 207 80 345 111 158 35 278 47 278
28z m-2162 -419 c50 -28 150 -132 163 -171 6 -19 9 -58 6 -87 -29 -280 -336
-339 -481 -93 -39 67 -44 134 -15 193 62 124 235 207 327 158z m2031 -5 c-13
-5 -37 -11 -54 -13 -16 -2 -43 -5 -60 -8 -16 -3 -57 -8 -90 -12 -118 -12 -225
-43 -504 -144 -96 -35 -112 -38 -96 -21 65 72 268 141 575 196 56 9 213 20
234 15 18 -4 17 -5 -5 -13z m-1219 -583 c-6 -10 -40 -15 -54 -7 -13 7 17 22
39 20 11 -2 18 -7 15 -13z m992 4 c-24 -21 -260 -55 -241 -35 10 10 175 42
214 42 19 -1 31 -4 27 -7z m-812 -29 c11 -7 -3 -10 -45 -10 -42 0 -56 3 -45
10 8 5 29 10 45 10 17 0 37 -5 45 -10z m396 -33 c4 -4 -42 -7 -102 -6 -64 1
-99 4 -84 8 32 10 176 8 186 -2z m-560 -240 c-4 -79 -20 -134 -48 -167 -46
-55 -134 -80 -238 -69 -30 3 -48 6 -41 7 8 1 53 14 100 28 110 34 135 59 181
187 19 53 38 97 43 97 4 0 5 -37 3 -83z m559 -7 c-2 -69 -6 -86 -31 -127 -47
-78 -136 -112 -269 -103 -27 1 -26 3 20 19 134 48 177 86 237 208 22 46 41 83
42 83 1 0 1 -36 1 -80z m467 19 c3 -92 -20 -160 -70 -206 -66 -61 -182 -85
-237 -49 -34 22 -28 28 34 33 69 5 113 26 155 74 34 40 106 176 106 201 0 6 2
9 5 6 3 -3 6 -29 7 -59z m-932 -354 c25 -121 -5 -197 -100 -252 -62 -37 -108
-42 -187 -22 -52 14 -47 29 11 29 120 0 242 124 248 253 2 30 6 53 10 51 4 -2
12 -29 18 -59z m386 -107 c43 -84 -10 -195 -139 -289 -30 -21 -47 -27 -80 -25
-41 3 -124 32 -116 41 3 2 26 7 53 10 69 10 111 30 156 75 50 50 80 108 84
168 3 26 5 51 5 55 2 15 21 -4 37 -35z m495 -2 c14 -111 -31 -199 -121 -243
-62 -30 -167 -36 -195 -13 -20 17 -9 25 60 40 136 31 211 100 216 201 1 24 4
48 7 53 5 10 31 -20 33 -38z m453 -280 c147 -29 263 -72 244 -91 -6 -6 -90 9
-229 40 -55 12 -159 47 -164 55 -9 14 61 12 149 -4z m-106 -126 c78 -37 148
-85 162 -110 10 -18 8 -19 -14 -10 -74 28 -201 100 -250 142 -24 20 45 5 102
-22z m-788 -27 c0 -22 -64 -115 -99 -145 -61 -52 -111 -63 -197 -44 -35 8 -78
45 -53 47 203 10 214 13 280 90 48 54 69 70 69 52z m399 -203 c-42 -62 -121
-115 -170 -113 -33 0 -77 23 -117 61 -19 18 -10 24 19 14 39 -15 108 -5 164
23 52 25 87 61 115 120 l15 30 3 -44 c3 -36 -2 -52 -29 -91z m-249 -280 c0
-31 -25 -74 -60 -103 -88 -74 -243 -55 -314 38 -16 21 -25 36 -20 33 93 -50
177 -66 253 -48 41 10 59 21 89 56 41 49 52 53 52 24z m-600 -908 c0 -44 -209
-240 -373 -351 -139 -93 -426 -213 -600 -251 -52 -11 -69 -7 -61 14 7 18 47
33 107 41 143 17 478 188 691 351 95 72 103 80 160 147 43 51 76 72 76 49z
m100 -148 c-105 -274 -403 -610 -691 -777 -25 -15 -49 -27 -53 -27 -16 0 11
25 132 119 241 189 383 349 517 586 44 76 87 135 96 129 5 -2 4 -16 -1 -30z
m156 -71 c-4 -42 -8 -79 -11 -83 -2 -3 -7 -22 -10 -41 -25 -144 -116 -396
-197 -549 -84 -159 -238 -372 -238 -331 0 14 59 118 128 226 132 205 232 466
257 670 4 28 8 61 11 75 2 14 7 41 10 60 3 19 13 46 21 59 14 22 16 23 25 7 6
-11 7 -50 4 -93z m104 83 c0 -2 9 -39 19 -82 37 -148 46 -223 46 -384 -1 -139
-9 -230 -32 -335 -8 -38 -17 -80 -19 -93 -19 -97 -98 -297 -127 -320 -14 -12
-15 -10 -11 14 3 15 22 77 44 139 21 62 41 128 44 146 3 19 10 61 16 93 17
104 25 227 25 396 0 149 -4 208 -21 335 -10 74 -8 95 6 95 6 0 10 -2 10 -4z"/>
<path d="M2234 6638 c-10 -23 -19 -45 -20 -48 0 -3 -6 -18 -13 -35 -32 -77
-68 -224 -86 -350 -4 -22 -9 -51 -11 -65 -12 -61 -11 -370 1 -454 14 -91 51
-226 62 -226 10 0 -6 134 -28 233 -13 57 -16 302 -5 407 11 110 32 223 61 325
44 158 66 247 62 251 -2 2 -12 -15 -23 -38z"/>
<path d="M2643 6481 c-62 -61 -152 -210 -206 -341 -8 -19 -24 -55 -35 -80 -57
-130 -119 -370 -126 -488 -5 -88 14 -83 29 8 29 176 98 414 161 553 35 76 100
196 113 207 6 5 101 144 115 168 15 25 -12 11 -51 -27z"/>
<path d="M3116 6264 c-108 -55 -381 -300 -484 -432 -101 -129 -232 -350 -232
-391 0 -38 18 -22 61 52 23 39 63 107 88 151 60 103 185 257 303 376 92 91
146 136 252 203 69 45 78 76 12 41z"/>
<path d="M3445 5915 c-164 -43 -364 -121 -480 -188 -103 -60 -254 -178 -353
-277 -56 -56 -102 -109 -102 -117 0 -20 64 28 159 120 216 209 488 360 781
432 85 21 121 35 114 46 -7 12 -17 11 -119 -16z"/>
<path d="M2055 4553 c-41 -11 -145 -104 -145 -129 0 -17 24 -9 65 21 53 38
106 65 126 65 11 0 47 -9 81 -21 75 -25 92 -15 51 31 -26 29 -35 32 -93 35
-36 2 -74 1 -85 -2z"/>
<path d="M1760 4209 c-86 -39 -140 -96 -140 -149 0 -31 11 -25 69 36 29 30 62
59 74 64 12 4 64 6 116 4 93 -4 94 -4 77 15 -47 52 -123 63 -196 30z"/>
<path d="M2213 4107 c-33 -5 -60 -17 -76 -33 -39 -39 -93 -164 -71 -164 5 0
32 26 59 59 79 92 100 103 195 102 83 -1 104 11 53 30 -37 14 -98 16 -160 6z"/>
<path d="M1153 3995 c63 -56 217 -133 217 -108 0 11 -126 84 -195 113 l-50 20
28 -25z"/>
<path d="M942 3877 c9 -30 177 -86 301 -102 111 -13 2 31 -231 94 -51 14 -72
16 -70 8z"/>
<path d="M2275 3780 c-91 -30 -159 -115 -171 -212 -5 -43 8 -98 24 -98 4 0 14
28 21 62 22 107 54 150 158 208 85 48 65 72 -32 40z"/>
<path d="M1773 3743 c-50 -17 -109 -70 -128 -116 -16 -38 -31 -137 -21 -137 3
0 18 25 32 56 14 30 43 73 64 94 39 39 60 47 175 70 58 12 58 13 34 26 -38 20
-108 23 -156 7z"/>
<path d="M2633 3649 c-76 -37 -128 -127 -133 -225 -4 -76 1 -78 25 -10 39 108
80 155 178 202 31 15 57 31 57 35 0 8 -36 19 -65 19 -11 0 -39 -9 -62 -21z"/>
<path d="M1720 3280 c-82 -32 -154 -128 -163 -217 -7 -71 8 -72 43 -3 42 83
118 156 210 201 l74 36 -61 0 c-34 0 -80 -8 -103 -17z"/>
<path d="M2740 3274 c-53 -17 -67 -27 -102 -74 -40 -55 -54 -115 -49 -210 2
-31 5 -27 27 40 50 148 120 207 252 209 23 1 42 5 42 10 0 8 -57 27 -105 35
-11 2 -40 -3 -65 -10z"/>
<path d="M2154 3254 c-61 -32 -89 -57 -108 -98 -16 -34 -26 -128 -17 -165 5
-19 12 -9 39 57 53 130 114 178 242 191 l65 7 -49 17 c-69 24 -115 21 -172 -9z"/>
<path d="M3440 2674 c-103 -39 -164 -102 -192 -199 -26 -90 -3 -178 63 -245
52 -53 90 -71 159 -77 94 -9 153 11 213 71 60 59 83 115 81 197 -2 96 -59 186
-145 230 -38 19 -151 33 -179 23z"/>
<path d="M2125 2354 c-229 -82 -450 -145 -560 -160 -22 -3 -65 -11 -95 -19
l-55 -13 65 4 c220 15 405 57 578 130 84 36 172 82 172 90 0 6 4 7 -105 -32z"/>
<path d="M2289 2178 c-333 -234 -493 -307 -838 -384 -86 -20 -158 -38 -161
-41 -5 -6 110 2 170 13 160 26 443 119 533 175 26 16 50 29 53 29 16 0 237
156 289 204 77 70 52 73 -46 4z"/>
<path d="M2407 1958 c-53 -62 -113 -129 -134 -149 -66 -61 -195 -162 -268
-209 -39 -25 -80 -51 -90 -58 -88 -56 -445 -202 -496 -202 -8 0 -24 -7 -35
-16 -18 -14 -15 -15 31 -9 177 22 529 178 690 307 164 131 415 398 415 440 0
22 -27 -2 -113 -104z"/>
</g>
</svg>
