<?xml version="1.0" encoding="UTF-8" standalone="no"?>
<svg
   xmlns:dc="http://purl.org/dc/elements/1.1/"
   xmlns:cc="http://creativecommons.org/ns#"
   xmlns:rdf="http://www.w3.org/1999/02/22-rdf-syntax-ns#"
   xmlns:svg="http://www.w3.org/2000/svg"
   xmlns="http://www.w3.org/2000/svg"
   xmlns:sodipodi="http://sodipodi.sourceforge.net/DTD/sodipodi-0.dtd"
   xmlns:inkscape="http://www.inkscape.org/namespaces/inkscape"
   width="48"
   height="48"
   viewBox="0 0 12.7 12.7"
   version="1.1"
   id="svg8"
   inkscape:version="1.0.1 (3bc2e813f5, 2020-09-07)"
   sodipodi:docname="logo.svg">
  <defs
     id="defs2">
    <style
       type="text/css"
       id="style6" />
  </defs>
  <sodipodi:namedview
     id="base"
     pagecolor="#ffffff"
     bordercolor="#666666"
     borderopacity="1.0"
     inkscape:pageopacity="0.0"
     inkscape:pageshadow="2"
     inkscape:zoom="11.2"
     inkscape:cx="22.216743"
     inkscape:cy="29.435467"
     inkscape:document-units="mm"
     inkscape:current-layer="layer1"
     inkscape:document-rotation="0"
     showgrid="false"
     inkscape:window-width="1346"
     inkscape:window-height="1009"
     inkscape:window-x="182"
     inkscape:window-y="0"
     inkscape:window-maximized="0"
     units="px" />
  <metadata
     id="metadata5">
    <rdf:RDF>
      <cc:Work
         rdf:about="">
        <dc:format>image/svg+xml</dc:format>
        <dc:type
           rdf:resource="http://purl.org/dc/dcmitype/StillImage" />
        <dc:title></dc:title>
      </cc:Work>
    </rdf:RDF>
  </metadata>
  <g
     inkscape:label="Layer 1"
     inkscape:groupmode="layer"
     id="layer1">
    <path
       d="m 6.35,1.6224213 c 1.4982124,1.13086 3.2632225,1.51792 4.503232,1.642222 C 10.520737,6.8280123 8.3818085,9.6278743 6.35,11.1751 4.3181919,9.6278743 2.1792635,6.8280123 1.8467689,3.2641393 3.0867775,3.1403463 4.8517877,2.7532813 6.35,1.6224213 Z m 0,-1.33601 c -1.5133761,1.51337 -3.7826668,2.021196 -5.5582955,2.021196 0,4.336981 2.5608586,8.1337987 5.5582955,10.1059817 2.9974375,-1.972183 5.558295,-5.7690007 5.558295,-10.1059817 -1.775629,0 -4.0449186,-0.507826 -5.558295,-2.021196 z"
       id="path843"
       style="stroke-width:0.505299" />
    <path
       d="M 6.3591378,9.8130876 H 6.340866 C 5.9118196,9.8133646 5.4716168,9.8090166 5.2598275,9.8009746 5.8014156,9.3943306 6.5235257,9.0320936 5.4173554,8.7167936 4.2214899,8.3759336 4.4476327,5.4853906 3.5763178,5.0962456 3.3925406,5.0141846 3.1828964,5.0871456 2.9910483,5.0821976 c 1.6901531,-1.533634 1.8358937,1.678082 2.4598705,2.724428 0.1731541,0.290355 0.3196515,0.377844 0.6089847,0.428016 -0.015973,-1.424159 -0.011189,-2.848817 -0.047928,-4.27248 -0.013121,-0.509355 -0.357328,-0.787137 -0.6818136,-1.064733 -0.01257,-0.01076 0.5024917,-0.01185 1.0198382,-0.0095 0.5173466,-0.0023 1.0324115,-0.0012 1.0198385,0.0095 -0.3244824,0.277596 -0.6686885,0.555378 -0.6818134,1.064733 -0.036735,1.423666 -0.031952,2.848326 -0.047927,4.27248 0.2893359,-0.05017 0.4358298,-0.137661 0.608988,-0.428016 0.6239764,-1.046346 0.7697165,-4.258046 2.4598655,-2.724428 -0.191848,0.005 -0.401488,-0.06801 -0.585269,0.01405 -0.8713111,0.389145 -0.645169,3.279688 -1.8410381,3.620548 -1.1061696,0.3153 -0.3840599,0.677537 0.157532,1.084181 -0.2117923,0.008 -0.6519913,0.01237 -1.0810385,0.01211 z"
       style="fill:#000000;fill-rule:nonzero;stroke-width:0.0247428"
       id="path10" />
  </g>
</svg>
