<?xml version="1.0" standalone="no"?>
<!DOCTYPE svg PUBLIC "-//W3C//DTD SVG 20010904//EN"
 "http://www.w3.org/TR/2001/REC-SVG-20010904/DTD/svg10.dtd">
<svg version="1.0" xmlns="http://www.w3.org/2000/svg"
 width="1280.000000pt" height="1110.000000pt" viewBox="0 0 1280.000000 1110.000000"
 preserveAspectRatio="xMidYMid meet">
<g transform="translate(0.000000,1110.000000) scale(0.100000,-0.100000)"
fill="#000000" stroke="none">
<path d="M22 10998 c114 -529 383 -1099 746 -1583 189 -251 334 -417 577 -660
311 -312 596 -551 1204 -1009 447 -338 565 -450 547 -521 -8 -31 -27 -36 -91
-24 -282 52 -781 413 -1868 1352 -159 137 -290 247 -293 245 -17 -17 99 -313
178 -456 316 -567 905 -1144 1808 -1771 244 -169 290 -206 290 -235 0 -33 -20
-38 -87 -20 -282 73 -1229 714 -1805 1222 -70 62 -128 106 -128 98 0 -7 11
-54 25 -102 121 -422 368 -786 789 -1162 422 -377 741 -604 1166 -832 194
-104 296 -166 304 -185 9 -25 -22 -45 -70 -45 -194 0 -955 432 -1652 937 l-64
45 18 -33 c72 -142 206 -340 343 -509 99 -123 357 -384 486 -491 334 -280 742
-538 1105 -699 132 -58 150 -71 130 -94 -33 -40 -187 -6 -409 90 -250 109
-696 344 -1074 566 -93 55 -171 98 -173 96 -2 -2 26 -54 63 -115 171 -289 406
-542 684 -735 255 -178 537 -336 839 -471 294 -132 380 -174 380 -186 0 -14
-120 -24 -182 -16 -137 17 -267 58 -596 187 -140 55 -256 97 -258 95 -3 -3 17
-31 44 -63 118 -141 317 -304 527 -429 60 -37 263 -142 451 -235 337 -166 425
-219 404 -245 -56 -67 -605 28 -799 138 -65 37 -65 32 12 -92 65 -104 212
-261 326 -347 140 -105 429 -238 570 -260 35 -6 37 -4 107 83 205 254 571 630
822 841 326 275 662 501 965 648 49 24 92 46 95 49 3 2 -13 28 -36 57 -110
144 -202 322 -382 733 -215 491 -423 913 -580 1175 -325 542 -758 1027 -1382
1548 -276 229 -396 319 -873 652 -651 454 -1002 721 -1419 1074 -524 445
-1104 1012 -1621 1589 -98 108 -179 197 -180 197 -2 0 6 -42 17 -92z"/>
<path d="M12638 10368 c-531 -629 -1114 -1226 -1718 -1758 -399 -352 -718
-611 -1395 -1135 -473 -365 -632 -497 -945 -780 -639 -578 -810 -823 -1267
-1820 -63 -137 -157 -332 -208 -433 -62 -122 -88 -181 -77 -178 63 20 309 79
417 100 724 143 1270 41 1545 -289 83 -100 142 -233 170 -377 7 -38 16 -68 20
-68 20 0 461 228 583 301 151 91 321 215 436 318 150 134 312 341 414 531 37
69 137 299 137 316 0 9 -40 -18 -260 -175 -250 -179 -376 -249 -464 -258 -48
-5 -57 -3 -63 12 -9 25 49 78 380 344 337 271 436 358 655 574 272 270 397
436 528 702 64 131 180 442 169 454 -6 5 -150 -122 -450 -395 -470 -429 -655
-574 -729 -574 -36 0 -43 24 -21 69 11 20 172 189 359 376 424 423 595 616
786 885 271 383 453 812 487 1153 l6 62 -28 -25 c-15 -14 -163 -173 -328 -355
-508 -558 -690 -723 -802 -727 -88 -3 -87 70 3 181 20 24 94 110 165 190 234
263 435 527 759 996 343 497 643 1061 785 1470 49 144 124 477 110 492 -3 2
-74 -78 -159 -179z"/>
<path d="M7845 4254 c-370 -29 -757 -123 -1135 -276 -892 -361 -1685 -1087
-2304 -2107 -255 -420 -566 -1041 -661 -1321 l-24 -71 47 -34 c104 -76 418
-210 426 -182 2 6 21 86 41 177 83 372 206 667 405 970 62 93 160 227 160 218
0 -3 -14 -36 -31 -74 -182 -400 -360 -993 -384 -1279 l-7 -81 213 -33 c118
-18 231 -37 252 -41 26 -6 40 -5 42 3 3 7 16 82 30 167 57 346 138 627 240
836 51 103 224 379 232 370 2 -2 -5 -32 -17 -67 -35 -107 -107 -394 -144 -579
-54 -268 -78 -465 -80 -635 l-1 -149 170 -17 c94 -9 207 -19 252 -23 l81 -6 6
62 c2 35 9 135 15 223 25 387 113 868 198 1085 31 78 48 100 39 50 -15 -86
-27 -693 -20 -1053 l7 -388 266 7 c146 4 269 9 272 13 4 3 -2 79 -12 168 -39
354 -51 547 -56 903 -3 237 -2 361 5 355 5 -5 37 -107 70 -225 112 -393 179
-692 231 -1027 l27 -178 30 3 c16 1 121 11 233 22 112 11 213 20 224 20 19 0
19 4 13 70 -19 211 -176 817 -318 1232 -24 70 -41 125 -37 122 4 -2 39 -57 78
-122 177 -296 328 -677 432 -1088 23 -93 43 -170 44 -172 5 -6 493 73 501 81
10 10 -63 256 -122 416 -116 309 -305 731 -412 919 -23 41 -42 76 -42 78 0 15
84 -62 148 -136 243 -277 482 -764 557 -1135 10 -49 19 -92 21 -93 6 -9 173
45 317 101 l157 62 -6 30 c-45 227 -121 489 -196 680 -117 296 -338 633 -598
909 -50 53 -88 101 -85 106 3 5 39 56 79 114 87 125 150 247 172 337 l16 66
192 -1 c209 -1 278 11 332 58 l28 23 245 -154 c135 -85 249 -158 253 -161 3
-4 -25 -50 -63 -102 -38 -52 -102 -144 -142 -203 l-72 -109 -16 98 c-9 55 -27
125 -39 157 -30 79 -107 191 -195 284 l-73 78 -18 -80 c-15 -62 -19 -118 -19
-245 1 -154 2 -170 28 -244 39 -111 91 -181 176 -237 l24 -15 -106 -172 c-59
-94 -107 -175 -107 -179 0 -11 128 -138 133 -132 2 2 23 54 46 114 39 100 141
307 161 329 4 4 33 -1 64 -13 176 -66 380 -41 621 74 130 62 393 241 421 286
5 8 -75 10 -292 7 -289 -5 -302 -6 -389 -32 -49 -14 -138 -51 -197 -80 -60
-30 -108 -52 -108 -50 0 12 234 321 329 434 67 79 192 210 212 221 14 7 22 1
42 -34 57 -96 168 -173 294 -203 91 -22 278 -14 383 16 97 27 300 125 300 145
0 41 -214 152 -364 190 -125 32 -292 42 -405 26 -46 -7 -85 -11 -87 -9 -7 8
222 154 316 202 l96 49 79 -79 c63 -63 98 -88 165 -121 147 -71 319 -100 525
-88 116 6 314 31 324 40 8 8 -19 58 -61 113 -54 69 -143 135 -253 188 -112 53
-222 78 -347 78 -53 1 -91 4 -84 8 13 7 296 92 422 127 l72 19 37 -75 c118
-232 378 -327 705 -258 97 20 262 75 258 85 -9 25 -155 127 -243 170 -124 61
-262 95 -450 112 l-140 13 155 43 c85 24 205 59 265 77 61 18 130 38 154 45
23 6 41 13 39 15 -4 5 -388 -37 -548 -59 -52 -8 -96 -12 -98 -11 -2 1 28 24
65 51 95 67 227 204 299 310 87 127 198 354 174 354 -20 0 -227 -97 -295 -139
-247 -151 -456 -359 -590 -589 -28 -48 -33 -52 -85 -62 -30 -7 -66 -14 -80
-18 l-25 -5 30 39 c110 144 196 301 260 479 40 110 42 109 -71 74 -86 -26
-208 -89 -288 -147 -199 -146 -379 -386 -417 -556 l-11 -51 -79 -39 c-43 -21
-117 -62 -165 -92 -64 -40 -83 -48 -72 -32 62 97 110 207 148 343 25 88 71
327 65 334 -3 2 -47 -21 -98 -52 -250 -149 -420 -315 -513 -500 -45 -89 -64
-165 -64 -258 0 -84 17 -145 55 -195 l25 -32 -58 -69 c-31 -37 -67 -81 -80
-97 -12 -16 -25 -27 -27 -24 -8 7 -58 184 -101 351 -49 192 -48 216 14 328 70
125 87 194 86 354 0 116 -3 139 -28 210 -90 262 -333 474 -614 535 -147 32
-344 45 -497 34z m625 -718 c42 -28 80 -89 80 -130 0 -88 -77 -158 -176 -160
-133 -1 -209 145 -129 250 61 80 143 95 225 40z"/>
</g>
</svg>
